<?xml version="1.0" encoding="utf-8"?>
<!-- Generator: Adobe Illustrator 19.2.1, SVG Export Plug-In . SVG Version: 6.00 Build 0)  -->
<!DOCTYPE svg PUBLIC "-//W3C//DTD SVG 1.1//EN" "http://www.w3.org/Graphics/SVG/1.1/DTD/svg11.dtd">
<svg version="1.1" xmlns="http://www.w3.org/2000/svg" xmlns:xlink="http://www.w3.org/1999/xlink" x="0px" y="0px" width="136px"
	 height="62px" viewBox="0 0 136 62" enable-background="new 0 0 136 62" xml:space="preserve">
<g id="bg">
	<rect fill="#FFFFFF" fill-opacity="0" width="68" height="62"/>
	<rect x="68" fill="#FFFFFF" fill-opacity="0" width="68" height="62"/>
</g>
<g id="puzzle">
	<path fill="#00B4FF" d="M63.9,17.7c1.9-1.7,2.8-4.2,2.8-6.8c0-2.6-1.1-5.1-2.9-6.9c-1.9-1.8-4.4-2.9-7-2.9c-2.6,0-5,1.1-6.9,2.8
		c-1,1-1.6,2.4-2.4,4.1l-0.4,0.6c-0.2,0.6-0.9,0.9-1.3,0.9c-0.3,0-0.8-0.1-1.1-0.4l-6.3-6.4c-2.3-2.3-6.3-2.3-8.6,0l-6.7,6.6
		c-1.4,1.4-2,3.4-1.6,5.4c0.4,1.9,1.7,3.6,3.6,4.3c0.3,0.2,0.8,0.4,1.2,0.5c0.9,0.3,2,0.8,2.2,1.1c1,1,1.5,2.3,1.5,3.7
		c0,1.4-0.5,2.7-1.5,3.8c-2.1,1.9-5.6,1.9-7.5,0c-0.3-0.3-0.9-1.5-1.2-2.4l-0.4-1.1c-1-2.2-3.2-3.5-5.6-3.5c-1.6,0-3.2,0.5-4.3,1.7
		l-6.6,6.5C1.7,30.4,1,31.9,1,33.5c0,1.6,0.7,3.1,1.9,4.3L21,55.7c3.5,3.4,8.1,5.3,13.1,5.3c4.9,0,9.5-1.8,13-5.3l18.1-17.9
		c2.4-2.4,2.4-6.1,0-8.5l-6.6-6.5c-0.4-0.5-0.4-1.1-0.4-1.4c0.1-0.2,0.2-0.8,0.9-1.1l0.8-0.3C61.5,19.3,62.9,18.7,63.9,17.7"/>
	<path fill="#00A0E6" d="M131.9,17.7c1.9-1.7,2.8-4.2,2.8-6.8c0-2.6-1.1-5.1-2.9-6.9s-4.4-2.9-7-2.9s-5,1.1-6.9,2.8
		c-1,1-1.6,2.4-2.4,4.1l-0.4,0.6c-0.2,0.6-0.9,0.9-1.3,0.9c-0.3,0-0.8-0.1-1.1-0.4l-6.3-6.4c-2.3-2.3-6.3-2.3-8.6,0l-6.7,6.6
		c-1.4,1.4-2,3.4-1.6,5.4c0.4,1.9,1.7,3.6,3.6,4.3c0.3,0.2,0.8,0.4,1.2,0.5c0.9,0.3,2,0.8,2.2,1.1c1,1,1.5,2.3,1.5,3.7
		c0,1.4-0.5,2.7-1.5,3.8c-2.1,1.9-5.6,1.9-7.5,0c-0.3-0.3-0.9-1.5-1.2-2.4l-0.4-1.1c-1-2.2-3.2-3.5-5.6-3.5c-1.6,0-3.2,0.5-4.3,1.7
		l-6.6,6.5c-1.2,1.1-1.9,2.6-1.9,4.2c0,1.6,0.7,3.1,1.9,4.3L89,55.7c3.5,3.4,8.1,5.3,13.1,5.3c4.9,0,9.5-1.8,13-5.3l18.1-17.9
		c2.4-2.4,2.4-6.1,0-8.5l-6.6-6.5c-0.4-0.5-0.4-1.1-0.4-1.4c0.1-0.2,0.2-0.8,0.9-1.1l0.8-0.3C129.5,19.3,130.9,18.7,131.9,17.7"/>
</g>
</svg>
