<?xml version="1.0" encoding="utf-8"?>
<!-- Generator: Adobe Illustrator 19.2.1, SVG Export Plug-In . SVG Version: 6.00 Build 0)  -->
<!DOCTYPE svg PUBLIC "-//W3C//DTD SVG 1.1//EN" "http://www.w3.org/Graphics/SVG/1.1/DTD/svg11.dtd">
<svg version="1.1" xmlns="http://www.w3.org/2000/svg" xmlns:xlink="http://www.w3.org/1999/xlink" x="0px" y="0px" width="96px"
	 height="48px" viewBox="0 0 96 48" enable-background="new 0 0 96 48" xml:space="preserve">
<g id="bg">
	<rect opacity="0" fill="#FFFFFF" width="48" height="48"/>
	<rect x="48" opacity="0" fill="#FFFFFF" width="48" height="48"/>
</g>
<g id="icon">
	<g>
		<path fill="#00B3FF" d="M24,47c12.7,0,23-10.3,23-23S36.7,1,24,1S1,11.3,1,24S11.3,47,24,47"/>
		<path fill="none" stroke="#FFFFFF" stroke-width="3" stroke-linecap="round" stroke-linejoin="round" stroke-miterlimit="10" d="
			M13.2,23.9l5.8,9.6c0,0,1,1.7,2.2,0.1l13.6-19.8"/>
	</g>
	<path fill="#00A0E6" d="M72,47c12.7,0,23-10.3,23-23S84.7,1,72,1S49,11.3,49,24S59.3,47,72,47"/>
	<path fill="none" stroke="#FFFFFF" stroke-width="3" stroke-linecap="round" stroke-linejoin="round" stroke-miterlimit="10" d="
		M61.2,23.9l5.8,9.6c0,0,1,1.7,2.2,0.1l13.6-19.8"/>
</g>
</svg>
