<?xml version="1.0" encoding="utf-8"?>
<!-- Generator: Adobe Illustrator 19.2.1, SVG Export Plug-In . SVG Version: 6.00 Build 0)  -->
<!DOCTYPE svg PUBLIC "-//W3C//DTD SVG 1.1//EN" "http://www.w3.org/Graphics/SVG/1.1/DTD/svg11.dtd">
<svg version="1.1" xmlns="http://www.w3.org/2000/svg" xmlns:xlink="http://www.w3.org/1999/xlink" x="0px" y="0px" width="48px"
	 height="48px" viewBox="0 0 48 48" enable-background="new 0 0 48 48" xml:space="preserve">
<g id="bg">
	<rect fill="#FFFFFF" fill-opacity="0" width="48" height="48"/>
</g>
<g id="icon">
	<g>
		<defs>
			<rect id="SVGID_1_" width="48" height="48"/>
		</defs>
		<clipPath id="SVGID_2_">
			<use xlink:href="#SVGID_1_"  overflow="visible"/>
		</clipPath>
		<path clip-path="url(#SVGID_2_)" fill="#00B3FF" d="M24,48c13.3,0,24-10.7,24-24S37.3,0,24,0S0,10.7,0,24S10.7,48,24,48"/>
		<path clip-path="url(#SVGID_2_)" fill="#FFFFFF" d="M24,9.9c-3,0-5.9,0.9-8.3,2.6l-2.2-2.4c0,0-1-1.1-1.3,0.3l-1.6,7.7
			c0,0-0.3,1.5,1.2,1.3l7.8-0.8c0,0,1.5-0.1,0.5-1.3l-2.4-2.6c1.9-1.2,4.1-1.9,6.3-1.9c6.6,0,11.9,5.4,11.9,11.9
			c0,6.6-5.3,11.9-11.9,11.9c-4.5,0-8.7-2.6-10.7-6.7c-0.3-0.8-1.2-1.1-2-0.7c-0.7,0.4-1,1.2-0.7,2c2.5,5.1,7.7,8.4,13.4,8.4
			c8.2,0,14.9-6.7,14.9-14.9C38.9,16.6,32.2,9.9,24,9.9"/>
	</g>
</g>
</svg>
