<?xml version="1.0" encoding="utf-8"?>
<!-- Generator: Adobe Illustrator 19.2.1, SVG Export Plug-In . SVG Version: 6.00 Build 0)  -->
<!DOCTYPE svg PUBLIC "-//W3C//DTD SVG 1.1//EN" "http://www.w3.org/Graphics/SVG/1.1/DTD/svg11.dtd">
<svg version="1.1" xmlns="http://www.w3.org/2000/svg" xmlns:xlink="http://www.w3.org/1999/xlink" x="0px" y="0px" width="42px"
	 height="42px" viewBox="0 0 42 42" enable-background="new 0 0 42 42" xml:space="preserve">
<g id="bg">
	<rect fill="#FFFFFF" fill-opacity="0" width="42" height="42"/>
</g>
<g id="icon">
	<g>
		<defs>
			<rect id="SVGID_1_" x="11" y="12.7" width="22" height="19"/>
		</defs>
		<clipPath id="SVGID_2_">
			<use xlink:href="#SVGID_1_"  overflow="visible"/>
		</clipPath>
		<path clip-path="url(#SVGID_2_)" fill="#00B4FF" d="M21.6,31.7c0.2,0,0.4-0.1,0.6-0.2L32.6,23c0.2-0.2,0.4-0.5,0.4-0.7
			c0-0.3-0.1-0.6-0.4-0.7L22.2,13c-0.4-0.3-1-0.3-1.3,0.1c-0.3,0.4-0.3,1,0.1,1.3l9.5,7.8L21,30c-0.4,0.3-0.5,0.9-0.1,1.3
			C21,31.6,21.3,31.7,21.6,31.7"/>
		<path clip-path="url(#SVGID_2_)" fill="#00B4FF" d="M11.9,31.7c0.2,0,0.4-0.1,0.6-0.2L23,23c0.2-0.2,0.4-0.5,0.4-0.7
			c0-0.3-0.1-0.6-0.4-0.7L12.5,13c-0.4-0.3-1-0.3-1.3,0.1c-0.3,0.4-0.3,1,0.1,1.3l9.5,7.8L11.3,30c-0.4,0.3-0.5,0.9-0.1,1.3
			C11.4,31.6,11.6,31.7,11.9,31.7"/>
	</g>
</g>
</svg>
